<?xml version="1.0" encoding="UTF-8" standalone="no"?>
<svg
   viewBox="0 0 79 79"
   version="1.1"
   id="svg8"
   sodipodi:docname="favicon.svg"
   inkscape:export-filename="C:\Users\axelb\Projects\searchui\public\favicon.png"
   inkscape:export-xdpi="233.31645"
   inkscape:export-ydpi="233.31645"
   inkscape:version="1.1 (c68e22c387, 2021-05-23)"
   xmlns:inkscape="http://www.inkscape.org/namespaces/inkscape"
   xmlns:sodipodi="http://sodipodi.sourceforge.net/DTD/sodipodi-0.dtd"
   xmlns="http://www.w3.org/2000/svg"
   xmlns:svg="http://www.w3.org/2000/svg">
  <defs
     id="defs12" />
  <sodipodi:namedview
     id="namedview10"
     pagecolor="#ffffff"
     bordercolor="#999999"
     borderopacity="1"
     inkscape:pageshadow="0"
     inkscape:pageopacity="0"
     inkscape:pagecheckerboard="0"
     showgrid="false"
     inkscape:zoom="6.7088608"
     inkscape:cx="39.425472"
     inkscape:cy="39.574528"
     inkscape:window-width="1366"
     inkscape:window-height="715"
     inkscape:window-x="-8"
     inkscape:window-y="-8"
     inkscape:window-maximized="1"
     inkscape:current-layer="svg8" />
  <path
     d="M79 47A263.1 263.1 0 0 1 0 75.7v3l2.8.2h16C37 78.2 57.1 74.7 79 67.3V46.9z"
     fill="#82b8e4"
     id="path2" />
  <path
     d="M79 11a298 298 0 0 0-61.2 28.5c-6 3.6-12 6.9-17.8 10V69c20-6.2 41.6-15.7 64.4-29.5 5-3 9.8-5.7 14.6-8.3V11.1z"
     fill="#646eb1"
     id="path4" />
  <path
     d="M59.1 0C41.1.8 21.4 4.2 0 11.2v19.9C28.7 15.7 55.1 7 79 2.9V.2L75 0H59.2z"
     fill="#bb4677"
     id="path6" />
</svg>
